<?xml version="1.0" standalone="no"?>
<!DOCTYPE svg PUBLIC "-//W3C//DTD SVG 20010904//EN"
 "http://www.w3.org/TR/2001/REC-SVG-20010904/DTD/svg10.dtd">
<svg version="1.0" xmlns="http://www.w3.org/2000/svg"
 width="24.000000pt" height="24.000000pt" viewBox="0 0 24.000000 24.000000"
 preserveAspectRatio="xMidYMid meet">

<g transform="translate(0.000000,24.000000) scale(0.100000,-0.100000)"
fill="#000000" stroke="none">
<path d="M0 232 c0 -4 22 -30 50 -57 27 -27 46 -51 41 -54 -14 -9 -63 -112
-56 -119 3 -3 27 15 52 40 42 42 45 48 32 65 -13 16 -12 17 2 5 14 -11 20 -9
37 13 12 14 22 31 24 37 3 8 11 7 27 -1 28 -16 36 -9 21 18 -8 16 -20 21 -50
21 -21 0 -41 -4 -44 -8 -3 -5 -31 4 -63 19 -62 30 -73 34 -73 21z m100 -58 c0
-18 -4 -18 -24 5 -17 19 -17 19 3 14 12 -3 21 -12 21 -19z m53 -29 c-7 -21
-13 -19 -13 6 0 11 4 18 10 14 5 -3 7 -12 3 -20z m-43 -53 c0 -5 -9 -17 -20
-27 -22 -20 -26 -14 -10 16 11 19 30 26 30 11z"/>
</g>
</svg>
