<?xml version="1.0" standalone="no"?>
<!DOCTYPE svg PUBLIC "-//W3C//DTD SVG 20010904//EN"
 "http://www.w3.org/TR/2001/REC-SVG-20010904/DTD/svg10.dtd">
<svg version="1.0" xmlns="http://www.w3.org/2000/svg"
 width="512.000000pt" height="512.000000pt" viewBox="0 0 512.000000 512.000000"
 preserveAspectRatio="xMidYMid meet">

<g transform="translate(0.000000,512.000000) scale(0.100000,-0.100000)"
fill="currentColor" stroke="none">
<path d="M1510 4811 c-18 -2 -204 -192 -660 -672 -349 -368 -675 -711 -723
-763 l-88 -95 1188 -1528 c653 -840 1202 -1550 1221 -1577 18 -27 50 -67 72
-89 l40 -39 43 44 c23 23 53 60 65 81 12 20 560 729 1218 1573 l1196 1537 -50
51 c-27 28 -323 339 -657 691 -797 839 -744 785 -769 785 -705 3 -2078 4
-2096 1z m799 -220 c-28 -39 -894 -967 -897 -961 -2 5 177 849 203 958 l5 22
351 0 c344 0 351 0 338 -19z m1195 2 c15 -52 206 -956 203 -960 -4 -4 -886
940 -900 964 -7 11 55 13 342 13 324 0 350 -1 355 -17z m-393 -625 l541 -583
-545 -3 c-300 -1 -792 -1 -1094 0 l-549 3 544 583 c298 320 547 582 552 582 5
0 253 -262 551 -582z m-1859 -95 l-106 -493 -364 0 -364 0 49 54 c67 76 887
935 889 933 1 -1 -46 -224 -104 -494z m3033 -48 l417 -440 -363 -3 c-199 -1
-364 -1 -366 1 -1 2 -48 217 -103 478 -56 261 -103 483 -106 494 -8 27 32 -13
521 -530z m-2660 -1717 c563 -1300 519 -1196 502 -1178 -8 8 -398 510 -867
1115 -469 605 -857 1106 -862 1113 -8 9 69 12 378 12 l389 0 460 -1062z m2101
1045 c-20 -55 -1162 -2683 -1166 -2683 -4 0 -1147 2628 -1166 2683 -6 16 54
17 1166 17 1112 0 1172 -1 1166 -17z m996 5 c-5 -7 -393 -508 -862 -1113 -469
-605 -859 -1107 -867 -1115 -8 -9 -4 8 9 40 13 30 233 538 488 1128 l463 1072
390 0 c310 0 387 -3 379 -12z"/>
</g>
</svg>
