<?xml version="1.0" standalone="no"?>
<!DOCTYPE svg PUBLIC "-//W3C//DTD SVG 20010904//EN"
 "http://www.w3.org/TR/2001/REC-SVG-20010904/DTD/svg10.dtd">
<svg version="1.0" xmlns="http://www.w3.org/2000/svg"
 width="920.000000pt" height="512.000000pt" viewBox="0 0 920.000000 512.000000"
 preserveAspectRatio="xMidYMid meet">

<g transform="translate(0.000000,512.000000) scale(0.100000,-0.100000)"
fill="currentColor" stroke="none">
<path d="M4395 4681 c-59 -6 -59 -6 -30 -19 17 -7 40 -20 53 -28 24 -15 23
-16 -58 -76 l-81 -61 -47 27 c-26 15 -67 37 -92 49 -25 12 -47 23 -50 25 -3 2
13 20 35 39 26 22 33 33 20 29 -11 -3 -38 -6 -60 -7 -22 -1 -48 -9 -57 -16
-11 -10 -22 -12 -35 -5 -12 6 -44 6 -93 -2 -77 -12 -81 -18 -20 -31 90 -19 90
-19 24 -88 -33 -34 -72 -76 -87 -93 l-29 -32 49 5 c44 5 55 12 124 80 l76 74
91 -47 c51 -26 92 -49 92 -53 -1 -3 -21 -22 -45 -41 -37 -29 -42 -36 -27 -42
35 -14 71 -7 100 17 17 14 34 25 38 25 4 0 33 -17 64 -39 37 -25 71 -41 105
-46 27 -4 65 -13 85 -21 35 -14 39 -13 124 27 l89 41 94 -94 95 -95 -69 -26
c-37 -14 -76 -28 -85 -32 -12 -5 -33 8 -70 42 -29 26 -46 38 -38 27 11 -16
120 -163 135 -182 1 -1 14 3 28 9 l26 12 -22 18 c-24 19 -27 16 49 43 23 8 52
25 66 38 22 23 34 25 158 31 131 6 136 6 155 -16 46 -51 108 -81 128 -61 4 4
-7 24 -24 45 l-31 39 28 0 c15 0 57 -5 93 -11 65 -11 67 -12 167 -110 55 -55
110 -107 123 -115 22 -16 21 -14 -5 27 -15 24 -39 62 -54 84 -15 22 -30 46
-34 53 -8 13 91 -27 131 -53 23 -16 100 -147 184 -317 52 -105 55 -108 87
-108 l33 0 -85 167 c-47 92 -84 168 -83 169 1 1 38 -26 83 -61 78 -62 82 -66
119 -157 21 -51 39 -94 40 -96 4 -4 84 39 90 47 5 8 -34 68 -86 132 -34 41
-244 479 -230 479 3 0 50 -44 103 -97 89 -89 101 -107 139 -193 22 -52 56
-140 75 -195 20 -59 39 -99 46 -97 6 2 28 15 49 30 27 19 37 33 34 47 -2 11
-12 70 -21 130 -17 118 -63 306 -88 367 -22 51 -21 52 23 23 37 -25 38 -28 55
-123 20 -121 32 -213 41 -320 7 -81 8 -83 26 -66 26 23 24 108 -5 292 -12 78
-20 142 -16 142 3 0 20 -15 37 -32 36 -37 50 -100 55 -240 2 -43 5 -78 8 -78
3 0 14 15 24 34 15 28 17 48 12 103 -5 62 -4 65 8 39 l13 -28 6 31 c8 38 -7
120 -29 163 -26 52 -82 116 -138 157 -61 46 -135 89 -118 69 6 -8 8 -18 4 -22
-4 -4 0 -6 8 -4 8 2 14 -3 12 -9 -1 -7 3 -13 9 -13 17 0 5 -23 -14 -26 -9 -1
-15 1 -12 5 2 4 -3 8 -11 8 -8 0 -13 -6 -10 -12 8 -22 -14 -35 -40 -23 -13 6
-21 15 -18 20 3 5 2 7 -3 6 -4 -1 -23 6 -41 16 -19 9 -36 15 -38 13 -3 -2 9
-10 26 -17 17 -7 37 -25 44 -39 18 -34 72 -208 91 -296 9 -38 19 -79 22 -90
12 -44 -130 183 -203 325 -69 133 -83 154 -113 166 -19 8 -36 13 -38 11 -1 -2
17 -41 42 -87 25 -46 45 -86 45 -89 0 -3 -15 9 -32 26 -18 17 -60 50 -93 73
-33 22 -76 62 -95 87 -26 34 -46 49 -77 58 -49 15 -52 11 -20 -23 20 -24 21
-25 2 -18 -11 4 -54 17 -95 29 -41 12 -78 26 -82 32 -4 5 -11 15 -15 21 -4 6
-25 14 -46 18 -36 7 -38 6 -27 -13 10 -20 9 -21 -92 -17 l-103 5 -32 35 c-27
29 -42 36 -85 42 l-53 6 43 -44 c23 -24 42 -47 42 -51 0 -4 -11 -7 -24 -7 -14
0 -48 -5 -77 -12 l-52 -12 -66 72 c-63 68 -68 72 -109 72 l-44 0 73 -80 c40
-44 70 -82 68 -84 -2 -2 -47 -17 -99 -35 l-94 -31 -41 39 c-22 21 -66 59 -97
84 l-57 46 57 35 57 36 -70 -2 c-39 0 -79 -7 -91 -14 -17 -12 -23 -12 -40 1
-10 8 -21 14 -24 13 -3 -1 -32 -4 -65 -7z m173 -156 c103 -81 128 -106 113
-112 -8 -3 -49 -23 -90 -44 -64 -32 -78 -36 -91 -24 -8 7 -48 36 -88 63 l-73
50 53 39 c80 59 102 73 111 73 5 0 34 -20 65 -45z m954 -34 c15 -5 229 -330
223 -338 -1 -2 -36 10 -77 25 -72 26 -79 31 -133 102 -32 41 -81 102 -109 135
-92 108 -92 99 -1 90 43 -4 87 -10 97 -14z m-225 -33 c50 -52 184 -221 179
-225 -2 -2 -44 -1 -94 3 l-90 7 -101 118 c-109 128 -106 118 -36 132 11 3 38
5 60 6 36 1 46 -5 82 -41z m441 -31 c44 -18 80 -40 91 -56 30 -44 98 -173 156
-295 l54 -116 -72 54 c-40 29 -81 58 -93 64 -12 6 -68 87 -124 179 -57 92
-110 179 -119 192 -15 23 -14 23 9 16 14 -4 58 -21 98 -38z m-625 -79 l95
-113 -97 -16 -96 -16 -86 91 c-47 50 -87 96 -87 101 -2 9 135 62 165 64 6 1
54 -50 106 -111z m1227 -543 c6 -19 10 -40 8 -46 -2 -6 -11 12 -20 40 -9 28
-12 49 -8 46 5 -3 14 -21 20 -40z"/>
<path d="M3275 4639 c-86 -21 -150 -46 -252 -98 -123 -62 -173 -106 -178 -156
-2 -17 2 -22 19 -21 11 0 24 6 28 11 5 6 8 6 8 -2 0 -6 -7 -19 -16 -27 -8 -9
-12 -16 -8 -16 4 0 -7 -11 -26 -25 -19 -14 -58 -50 -87 -81 -45 -47 -57 -67
-73 -128 -10 -39 -22 -92 -26 -119 -6 -45 -4 -50 36 -102 24 -31 44 -54 46
-52 2 2 8 34 13 71 5 37 23 96 40 132 30 64 50 89 30 37 -6 -16 -24 -77 -40
-138 l-29 -110 24 -23 23 -24 7 39 c9 52 72 271 96 335 17 46 28 58 80 91 33
20 62 37 65 37 3 0 -4 -18 -14 -39 -25 -47 -92 -216 -116 -290 -10 -30 -33
-74 -52 -99 -61 -81 -61 -81 9 -125 l27 -17 26 82 c23 78 28 86 80 126 30 24
55 41 55 38 0 -3 -9 -28 -20 -56 l-20 -51 44 33 c27 21 54 53 70 85 25 51 27
53 98 74 110 33 174 88 256 216 l67 105 68 -7 c57 -5 71 -3 95 13 15 11 34 21
42 24 8 3 -22 14 -68 24 l-82 19 77 99 c42 55 69 97 60 93 -8 -3 -32 -9 -51
-13 -30 -5 -45 -19 -98 -90 l-62 -84 -78 0 c-43 0 -78 4 -78 8 0 5 18 34 41
65 36 52 38 56 16 48 -16 -6 -28 -6 -36 2 -6 6 -11 8 -11 4 0 -4 -10 -3 -21 4
-15 8 -19 8 -15 0 4 -6 3 -11 -3 -11 -5 0 -12 6 -14 13 -3 7 -6 3 -8 -8 -1
-11 -5 -5 -8 15 -9 44 -4 55 17 38 13 -12 14 -10 4 9 -10 18 -9 22 6 25 14 3
14 5 2 9 -8 3 -46 -2 -85 -12z m42 -69 c-2 -11 -6 -22 -9 -26 -4 -3 -5 2 -3
13 2 10 4 21 4 26 1 4 3 7 6 7 3 0 4 -9 2 -20z m44 -67 c-38 -69 -58 -87 -112
-99 -30 -7 -56 -11 -57 -9 -2 2 10 23 26 47 23 34 41 48 79 60 66 22 76 22 64
1z m-233 -100 c-22 -40 -32 -46 -142 -92 -5 -2 3 16 17 40 20 33 39 49 84 69
32 15 59 26 61 25 1 -1 -8 -20 -20 -42z m-258 8 c-13 -26 -13 -34 2 -25 7 5 8
3 3 -5 -13 -22 -28 4 -16 28 7 12 14 21 17 21 2 0 0 -9 -6 -19z m618 -59 c-1
-4 -36 -60 -76 -124 l-74 -117 -56 -12 c-31 -6 -63 -14 -70 -17 -8 -3 16 55
53 127 44 87 75 135 89 141 27 11 139 13 134 2z m-578 -62 c-12 -24 -46 -67
-75 -97 -30 -31 -66 -79 -82 -109 -15 -29 -29 -52 -30 -50 -5 5 29 111 53 166
20 45 36 63 86 97 34 24 63 41 66 39 2 -2 -6 -23 -18 -46z m277 -98 c-70 -144
-72 -148 -129 -184 -32 -21 -58 -35 -58 -33 0 14 57 154 96 236 l46 97 52 15
c28 8 54 15 58 16 4 0 -25 -65 -65 -147z"/>
<path d="M6232 4387 c-1 -17 1 -19 8 -7 8 13 10 12 10 -3 0 -10 4 -16 10 -12
11 7 3 32 -14 38 -7 3 -13 -4 -14 -16z"/>
<path d="M4293 4239 c-35 -22 -66 -45 -69 -51 -4 -6 20 7 52 29 32 22 68 45
79 51 11 6 15 12 10 12 -6 0 -38 -18 -72 -41z"/>
<path d="M4189 4163 c-13 -16 -12 -17 4 -4 16 13 21 21 13 21 -2 0 -10 -8 -17
-17z"/>
<path d="M4906 4055 c-11 -8 -15 -15 -9 -15 6 0 16 7 23 15 16 19 11 19 -14 0z"/>
<path d="M2544 3935 c3 -97 22 -154 74 -229 17 -25 33 -72 48 -140 12 -55 76
-360 143 -676 67 -316 146 -674 176 -795 30 -121 64 -263 76 -315 11 -52 32
-133 45 -180 38 -134 74 -303 89 -423 17 -125 42 -176 122 -247 36 -31 49 -37
63 -30 14 8 23 3 45 -25 15 -20 53 -49 88 -66 47 -24 58 -27 46 -13 -31 37
-32 47 -3 27 16 -11 40 -27 54 -36 14 -9 35 -24 46 -32 12 -9 91 -34 175 -55
116 -30 174 -40 235 -40 57 0 85 -4 93 -14 7 -8 29 -16 51 -18 36 -3 38 -2 24
13 -14 15 -12 17 18 22 18 4 60 9 93 12 57 6 62 5 105 -28 44 -33 105 -52 127
-39 6 4 -12 24 -43 47 -29 22 -53 42 -54 45 0 3 38 17 84 32 l84 28 66 -40
c36 -22 70 -40 76 -40 27 0 4 -19 -52 -43 l-63 -26 68 0 c40 -1 79 5 96 13 17
9 32 11 42 5 17 -10 76 -11 104 0 17 7 15 10 -18 20 -20 7 -37 16 -37 19 1 4
33 28 72 55 l70 47 59 -12 c33 -7 59 -14 59 -18 -1 -3 -28 -26 -62 -53 -51
-39 -57 -47 -37 -47 45 0 89 18 131 54 37 32 48 36 100 36 58 0 68 -6 46 -28
-17 -17 57 4 103 28 20 11 45 20 55 20 17 0 67 17 166 57 20 8 53 33 74 54 41
42 57 49 47 21 -6 -15 -5 -16 13 -2 126 95 170 158 185 268 13 94 18 103 34
67 16 -36 19 -23 5 24 -10 37 25 217 80 406 16 55 34 129 41 165 12 62 56 257
139 610 21 91 48 219 60 285 12 66 51 264 86 440 36 176 74 370 85 430 12 61
25 116 31 123 6 6 8 12 4 12 -3 0 -15 -14 -25 -30 -22 -37 -86 -73 -99 -56 -5
6 -8 19 -7 29 2 9 -2 17 -8 17 -7 0 -6 5 3 11 39 28 -53 -3 -102 -34 -73 -47
-153 -87 -286 -141 -62 -25 -123 -53 -136 -61 -30 -20 -41 -46 -24 -57 9 -5 7
-8 -7 -9 l-20 0 20 -9 c11 -5 14 -9 6 -9 -9 -1 -11 -8 -8 -22 3 -12 3 -19 1
-16 -3 3 -16 -5 -29 -17 -13 -12 -49 -30 -80 -40 -88 -27 -59 -29 35 -1 47 13
86 23 87 21 2 -1 -8 -12 -20 -24 -17 -16 -43 -25 -91 -30 -37 -5 -69 -5 -72
-1 -2 4 -26 2 -52 -6 -26 -7 -76 -20 -112 -27 l-65 -13 50 -5 50 -5 -93 -77
c-52 -43 -103 -78 -114 -78 -31 0 -158 32 -158 40 0 4 18 19 39 34 22 15 47
36 57 47 18 20 17 20 -26 13 -26 -4 -64 -22 -91 -41 -55 -39 -62 -40 -126 -12
-42 19 -60 20 -148 15 -83 -5 -110 -11 -160 -36 -33 -16 -66 -30 -73 -30 -16
0 -95 39 -103 52 -3 5 -32 8 -65 6 l-59 -3 79 -46 78 -47 -81 -27 c-45 -15
-89 -24 -99 -20 -27 10 -211 129 -211 137 -1 4 9 8 22 10 12 2 -25 8 -83 13
-129 11 -123 11 -192 1 -49 -7 -61 -5 -85 12 -15 10 -39 23 -53 26 -14 4 -34
10 -44 13 -12 3 -7 -5 15 -26 l34 -30 -74 -1 -74 0 -43 44 c-28 27 -59 47 -84
54 -22 5 -40 7 -40 3 0 -4 16 -22 35 -41 19 -19 35 -37 35 -41 0 -4 -33 1 -72
12 -62 17 -80 27 -118 68 -66 70 -143 99 -94 36 14 -19 22 -35 18 -35 -14 0
-126 69 -171 107 -24 19 -43 32 -43 29 0 -3 -28 11 -62 31 -35 20 -78 44 -96
54 -42 22 -128 89 -164 126 -20 21 -26 37 -25 62 1 23 -3 36 -13 38 -9 3 -11
1 -5 -4 12 -9 13 -39 2 -47 -4 -3 -5 -3 -3 0 3 3 1 16 -4 29 -5 13 -5 26 1 32
6 6 0 20 -16 37 -102 111 -153 186 -182 271 -13 38 -13 36 -9 -50z m197 -392
c17 -37 54 -104 83 -148 70 -106 158 -258 146 -250 -38 24 -238 359 -264 443
-15 46 6 20 35 -45z m3644 -41 c-22 -20 -42 -36 -43 -35 -9 4 17 36 44 53 43
28 43 24 -1 -18z m85 -19 c-19 -62 -62 -144 -85 -163 -8 -7 -13 -16 -10 -20 3
-5 1 -11 -4 -14 -5 -4 -8 0 -7 7 3 23 109 247 117 247 4 0 -1 -26 -11 -57z
m-3539 -78 c18 -33 41 -73 52 -88 10 -16 17 -30 15 -32 -6 -7 -188 216 -188
230 0 2 20 -8 44 -23 31 -19 53 -44 77 -87z m3358 29 c-32 -34 -149 -119 -149
-108 0 2 12 23 26 45 19 30 30 40 44 36 11 -3 18 -1 17 4 -2 9 71 58 87 59 6
0 -6 -16 -25 -36z m-3237 -81 c49 -51 228 -285 222 -292 -6 -7 -69 38 -100 71
-32 34 -224 295 -224 304 0 10 56 -35 102 -83z m3306 40 c-9 -10 -27 -38 -40
-63 -56 -101 -88 -146 -118 -163 -17 -11 -33 -17 -35 -15 -2 2 18 38 46 81 27
43 49 80 49 84 0 10 93 92 104 93 5 0 2 -8 -6 -17z m-250 -53 c-19 -23 -50
-46 -73 -54 -91 -34 -107 -30 -60 14 21 20 133 76 158 79 5 1 -7 -17 -25 -39z
m82 -59 c0 -5 -4 -11 -8 -13 -4 -1 -40 -46 -78 -98 -64 -86 -75 -97 -124 -115
-30 -11 -59 -22 -64 -24 -11 -4 -1 8 93 125 45 57 78 86 115 105 59 30 66 32
66 20z m228 -43 c-6 -18 -13 -27 -15 -21 -4 11 13 53 22 53 2 0 -1 -15 -7 -32z
m-3123 -59 c28 -15 66 -31 85 -38 41 -13 235 -201 208 -201 -9 0 -55 14 -102
31 -85 31 -86 31 -162 125 -42 52 -80 94 -85 94 -5 0 -9 5 -9 11 0 12 -2 13
65 -22z m2616 -58 c-102 -111 -96 -107 -161 -114 l-54 -7 93 94 c91 91 120
109 190 115 7 0 -23 -39 -68 -88z m-213 -37 l-87 -84 -65 0 c-71 0 -81 8 -41
34 13 9 53 43 88 75 61 58 66 60 123 63 32 2 61 2 64 0 3 -2 -34 -41 -82 -88z
m581 15 c-40 -72 -103 -149 -122 -149 -5 0 2 15 17 33 14 17 37 53 51 79 25
48 84 122 92 115 2 -2 -15 -37 -38 -78z m-3061 -129 c48 -63 88 -118 90 -122
2 -5 -22 7 -54 25 -51 29 -66 45 -141 159 -45 70 -83 130 -83 133 0 21 115
-98 188 -195z m545 14 c53 -49 92 -90 87 -92 -6 -2 -40 1 -77 7 -73 11 -92 25
-193 142 l-49 56 68 -12 c68 -11 71 -13 164 -101z m1239 89 c35 -14 67 -30 71
-33 5 -4 -28 -28 -72 -54 l-81 -47 -35 17 c-46 21 -49 28 -25 49 11 10 20 23
20 28 0 6 -13 -2 -30 -18 -27 -26 -32 -27 -57 -16 l-27 12 80 44 c43 25 82 45
86 45 4 0 35 -12 70 -27z m-747 -52 c52 -38 101 -72 108 -74 22 -10 -12 -24
-88 -37 l-73 -13 -106 83 c-58 46 -106 87 -106 91 0 7 32 11 137 17 25 2 52
-13 128 -67z m1887 17 c-16 -24 -46 -69 -67 -101 -36 -56 -73 -83 -135 -102
l-25 -7 25 28 c14 16 52 64 84 107 51 67 107 115 139 117 4 0 -5 -19 -21 -42z
m-2136 -55 l107 -88 -67 -9 c-38 -5 -75 -5 -86 0 -23 11 -198 166 -199 177 -1
4 30 7 68 7 l69 0 108 -87z m2295 -19 c-28 -44 -57 -92 -65 -109 -15 -33 -96
-128 -103 -122 -5 6 109 186 165 260 24 32 46 56 48 54 3 -2 -18 -40 -45 -83z
m79 68 c0 -5 -7 -17 -15 -28 -14 -18 -14 -17 -4 9 12 27 19 34 19 19z m-1135
-42 c39 -11 74 -20 79 -20 6 0 -6 -11 -25 -25 -19 -13 -38 -28 -44 -32 -56
-46 -77 -54 -115 -48 -22 4 -42 11 -46 16 -3 5 -13 9 -22 9 -9 1 -30 7 -46 13
l-30 13 75 47 c41 26 81 47 89 47 8 -1 47 -9 85 -20z m-2071 -153 c21 -26 37
-50 35 -52 -2 -2 -19 0 -38 3 -29 6 -41 19 -92 102 -32 52 -58 98 -58 103 -1
11 109 -101 153 -156z m289 11 c48 -53 87 -98 87 -101 0 -3 -25 5 -56 16 -58
21 -101 64 -193 192 l-33 46 54 -28 c38 -20 80 -57 141 -125z m2449 65 c-33
-43 -68 -85 -78 -94 -19 -17 -144 -35 -144 -21 0 4 35 42 78 85 63 63 87 80
128 91 27 7 55 14 62 15 7 0 -14 -34 -46 -76z m-1144 28 l80 -38 -80 -39 -79
-39 -63 33 c-109 57 -109 54 -19 89 43 18 79 32 80 32 1 1 37 -16 81 -38z
m729 9 c24 0 43 -4 41 -9 -6 -15 -143 -131 -155 -131 -7 0 -14 8 -14 18 -1 14
-2 14 -6 1 -3 -13 -12 -14 -58 -6 -30 6 -55 13 -55 16 1 13 175 121 188 116 7
-3 34 -5 59 -5z m249 -8 c-3 -4 -39 -40 -78 -79 -69 -70 -74 -73 -118 -72 -86
1 -86 8 5 85 82 70 85 71 141 73 32 0 54 -2 50 -7z m-2133 -67 c38 -12 68 -25
69 -31 0 -5 -16 -22 -36 -39 l-37 -29 -59 59 c-33 33 -59 63 -60 68 0 9 27 2
123 -28z m912 -34 l76 -48 -78 -28 c-88 -31 -89 -31 -192 45 -30 21 -59 36
-65 33 -6 -4 -7 -2 -3 3 9 10 129 41 164 43 12 0 56 -21 98 -48z m-1485 -49
c0 -5 17 -25 38 -44 35 -31 227 -298 215 -298 -16 0 -150 132 -187 184 -47 66
-98 161 -90 168 2 3 -5 13 -16 23 -11 10 -20 24 -20 32 0 7 14 -2 30 -20 17
-19 30 -39 30 -45z m1980 50 l84 -29 -49 -28 c-28 -15 -67 -39 -89 -52 l-38
-25 -84 38 c-46 20 -84 40 -84 43 1 7 150 80 165 80 6 1 49 -12 95 -27z m1048
-89 c-56 -83 -83 -113 -116 -131 -24 -14 -45 -23 -47 -21 -8 8 178 240 203
253 15 8 29 13 30 11 2 -2 -29 -52 -70 -112z m-2157 78 c9 -1 56 -33 103 -73
97 -80 97 -88 3 -88 l-58 0 -94 84 c-51 47 -91 86 -89 88 2 2 29 1 61 -3 32
-4 65 -8 74 -8z m343 -37 c33 -26 71 -51 84 -57 12 -6 22 -14 22 -18 0 -8
-112 -29 -151 -29 -28 1 -71 33 -67 51 2 6 -26 29 -62 50 l-64 38 49 4 c126 9
124 10 189 -39z m-459 -52 l68 -64 -59 7 c-78 10 -135 28 -162 50 -24 21 -20
35 9 35 10 0 18 3 17 8 -1 4 4 17 12 29 17 26 19 25 115 -65z m-759 -122 c98
-149 137 -207 212 -312 24 -33 39 -59 33 -57 -19 7 -143 133 -170 174 -15 22
-45 72 -66 110 -21 39 -42 72 -47 73 -4 2 -6 8 -3 13 4 5 -15 48 -40 96 -57
107 -42 90 81 -97z m297 152 c47 -23 74 -48 158 -146 108 -126 107 -128 -6
-76 -52 24 -65 35 -99 91 -26 43 -32 58 -17 45 19 -17 21 -17 21 -2 0 9 -14
25 -32 34 -37 20 -107 81 -93 82 6 0 36 -13 68 -28z m2950 -19 c-11 -15 -45
-73 -76 -128 -36 -65 -70 -112 -96 -133 -22 -17 -42 -32 -46 -32 -3 0 7 19 22
43 14 23 55 89 91 147 35 58 73 115 85 128 29 31 45 12 20 -25z m-1027 25 c35
-6 64 -15 64 -18 0 -7 -114 -90 -123 -90 -3 0 -7 6 -10 13 -2 6 -3 4 -1 -6 5
-35 -36 -41 -115 -17 l-72 22 88 54 c48 29 92 53 97 54 5 0 37 -5 72 -12z
m-2024 -28 c20 -21 14 -30 -18 -30 -20 0 -54 32 -54 51 0 12 55 -4 72 -21z
m2719 13 c-5 -10 -39 -55 -75 -99 -67 -84 -84 -94 -158 -94 -28 0 -27 3 58 94
64 70 96 97 123 104 56 15 63 15 52 -5z m-1179 -45 c43 -18 78 -36 78 -39 0
-4 -40 -23 -90 -43 l-90 -36 -76 46 -75 46 78 33 c43 18 83 31 88 29 6 -1 45
-18 87 -36z m756 17 c5 -4 -65 -67 -124 -113 -35 -28 -49 -33 -71 -28 -16 4
-43 10 -62 14 l-34 7 84 68 84 68 60 -6 c33 -4 62 -9 63 -10z m783 -16 c-5
-13 -10 -19 -10 -12 -1 15 10 45 15 40 3 -2 0 -15 -5 -28z m-551 13 c0 -4 -35
-42 -78 -85 l-78 -78 -83 3 -82 3 93 82 93 82 68 0 c37 1 67 -2 67 -7z m-2470
-65 l25 -32 -31 22 c-17 12 -36 29 -43 37 -10 12 -9 14 6 9 10 -3 29 -19 43
-36z m287 10 c52 -18 78 -37 153 -110 49 -49 90 -90 90 -91 0 -2 -10 -2 -22 0
-13 2 -44 6 -69 9 -44 6 -51 11 -133 105 -76 88 -93 110 -83 110 1 0 30 -10
64 -23z m-539 -262 c29 -44 61 -91 72 -105 11 -14 20 -29 20 -33 0 -5 21 -38
46 -75 l46 -67 -38 41 c-64 66 -84 93 -142 188 -62 101 -127 235 -137 281 -4
17 13 -10 38 -60 24 -49 67 -126 95 -170z m1472 208 l80 -48 -82 -26 c-94 -30
-82 -33 -191 47 l-59 42 59 12 c32 6 63 13 68 15 27 10 52 1 125 -42z m498 -2
l82 -29 -52 -34 c-29 -19 -70 -44 -90 -57 l-36 -22 -88 41 -88 41 94 44 c52
25 95 45 95 45 0 0 37 -13 83 -29z m-998 -71 c44 -36 79 -68 80 -72 0 -5 -39
-8 -87 -8 l-88 0 -83 78 c-45 42 -82 79 -82 83 0 3 41 0 91 -5 l91 -11 78 -65z
m2047 9 c-86 -135 -109 -161 -151 -176 -22 -7 -41 -11 -43 -9 -3 2 37 56 87
120 80 101 125 144 152 146 4 0 -17 -36 -45 -81z m-1807 16 c40 -30 77 -55 82
-55 4 0 8 -4 8 -9 0 -5 -18 -12 -40 -15 -128 -19 -109 -24 -199 51 l-83 68 69
6 c37 3 73 6 79 7 6 1 44 -23 84 -53z m2035 -4 c-15 -44 -41 -86 -67 -113 -10
-10 -18 -25 -18 -33 0 -12 -47 -45 -64 -45 -13 0 41 69 54 70 13 0 13 2 1 9
-11 7 -1 24 45 80 32 39 59 71 61 71 1 0 -4 -18 -12 -39z m-2921 -30 c29 -14
65 -49 116 -113 41 -51 83 -101 93 -110 27 -28 11 -25 -91 18 -34 14 -54 34
-98 96 -32 46 -53 86 -50 94 3 9 1 12 -4 9 -10 -6 -59 42 -60 58 0 5 12 -1 26
-12 14 -11 44 -29 68 -40z m1816 19 c-11 -7 -9 -11 13 -19 36 -14 44 -14 49 1
4 10 11 10 28 2 24 -10 21 -13 -59 -72 -45 -34 -90 -62 -98 -62 -22 0 -135 42
-129 48 17 16 184 111 196 111 13 1 13 0 0 -9z m738 -19 c-3 -10 -72 -92 -128
-154 -28 -30 -45 -40 -80 -44 l-45 -6 89 97 c58 62 100 99 120 105 42 12 48
13 44 2z m-1157 -52 l84 -41 -75 -38 c-41 -22 -82 -39 -91 -40 -9 0 -53 24
-98 54 l-82 54 73 25 c40 14 80 25 89 26 8 1 53 -17 100 -40z m709 31 c57 0
79 -12 59 -32 -53 -50 -148 -128 -157 -128 -6 0 -13 14 -17 31 -4 17 -13 33
-21 36 -13 5 -12 9 2 30 11 18 12 23 3 18 -8 -5 -1 6 16 24 21 22 36 30 50 27
11 -3 40 -6 65 -6z m262 -27 c-42 -59 -160 -163 -184 -162 -27 0 -108 16 -93
18 6 1 47 37 92 81 85 81 86 81 181 88 l23 2 -19 -27z m-2132 -39 c49 -12 64
-23 147 -106 50 -51 90 -95 88 -96 -2 -2 -36 1 -74 8 l-71 12 -68 76 c-37 42
-77 86 -89 98 -27 26 -30 39 -5 29 9 -4 42 -14 72 -21z m843 -16 c18 -13 63
-39 101 -59 37 -20 64 -39 60 -42 -14 -8 -145 -47 -158 -47 -6 1 -24 12 -41
26 -16 15 -23 23 -15 18 13 -7 13 -5 1 9 -15 18 -26 23 -16 7 3 -5 3 -10 0
-10 -11 0 -125 82 -125 90 0 6 91 24 143 28 11 1 33 -8 50 -20z m832 -37 c-7
-31 -15 -35 -48 -22 -17 6 -17 8 5 26 14 13 19 14 13 4 -6 -8 -1 -5 9 8 24 28
30 24 21 -16z m-1423 15 c37 -3 51 -13 162 -109 35 -29 38 -35 27 -55 -9 -17
-21 -22 -54 -22 -41 0 -48 5 -140 96 -53 52 -97 98 -97 100 0 3 15 2 33 -1 17
-3 49 -7 69 -9z m-531 -52 c80 -53 116 -88 215 -217 50 -65 48 -65 -48 -25
-41 17 -60 37 -130 132 -45 61 -93 123 -107 139 -13 15 -22 27 -19 27 3 0 43
-25 89 -56z m934 -16 c52 -39 95 -75 95 -78 0 -4 -36 -12 -81 -19 -65 -10 -84
-10 -97 1 -39 29 -148 123 -159 136 -20 24 -8 29 72 31 l75 2 95 -73z m743 39
l54 -20 -23 -18 c-13 -10 -51 -32 -86 -51 l-62 -33 -68 34 -68 33 85 44 c47
24 92 41 100 38 8 -3 39 -15 68 -27z m-1932 -193 c20 -35 34 -64 31 -64 -5 0
-91 148 -121 207 -9 18 -16 40 -16 50 0 9 16 -16 35 -56 20 -40 51 -102 71
-137z m2963 124 c-66 -106 -66 -106 -110 -129 -51 -26 -67 -24 -42 4 11 12 41
54 67 92 40 60 99 113 129 115 4 0 -16 -37 -44 -82z m112 34 c-5 -10 -18 -25
-27 -33 -16 -12 -17 -12 -9 1 10 18 37 50 42 50 2 0 -1 -8 -6 -18z m69 -49
c-50 -88 -81 -135 -86 -130 -2 2 21 48 52 101 31 53 59 95 61 92 3 -3 -9 -31
-27 -63z m-1037 21 c-1 -7 9 -9 25 -7 26 4 26 4 8 -11 -11 -9 -25 -16 -32 -16
-14 0 -34 -51 -34 -86 0 -13 -5 -24 -10 -24 -18 0 -170 53 -170 59 0 3 38 27
83 54 77 45 135 59 130 31z m674 -77 c-76 -99 -83 -104 -151 -112 l-60 -8 80
87 c46 50 90 89 104 92 14 3 36 9 50 14 14 4 27 6 29 4 2 -2 -21 -37 -52 -77z
m-1097 19 l72 -35 -36 -15 c-20 -8 -44 -13 -54 -10 -14 5 -14 4 -3 -4 11 -8 6
-14 -24 -26 -20 -9 -45 -16 -54 -16 -21 0 -149 82 -136 87 6 2 39 14 75 28 36
13 70 24 77 24 6 1 44 -14 83 -33z m520 5 c-32 -28 -86 -49 -96 -38 -2 2 17
15 43 28 27 13 50 27 51 32 2 4 11 7 20 7 11 0 5 -10 -18 -29z m215 -27 c-43
-36 -51 -34 -61 11 l-6 30 54 -4 53 -3 -40 -34z m215 41 c0 -3 -35 -41 -78
-85 -73 -75 -81 -80 -120 -80 -23 0 -42 5 -42 11 0 23 87 92 104 82 6 -3 8 -3
4 2 -4 4 2 20 13 36 15 21 29 29 62 32 23 2 45 4 50 5 4 1 7 0 7 -3z m-2114
-43 c57 -16 69 -24 148 -109 47 -50 86 -93 86 -95 0 -8 -95 8 -115 19 -25 14
-197 204 -183 203 2 -1 31 -8 64 -18z m500 3 c18 -14 17 -14 -13 -15 -25 0
-31 4 -27 15 8 19 15 19 40 0z m421 -70 c45 -26 71 -46 62 -49 -8 -3 -46 -15
-86 -27 l-71 -22 -75 54 -76 54 72 16 c40 9 78 17 85 18 7 0 47 -19 89 -44z
m1694 -19 c-17 -60 -126 -244 -138 -232 -3 3 4 18 16 35 12 17 47 82 77 146
31 63 57 115 59 115 2 0 -4 -29 -14 -64z m-884 43 c6 -6 9 -18 6 -25 -6 -17
15 -18 54 -3 l28 10 -25 -25 c-24 -25 -27 -25 -87 -13 -35 6 -63 15 -63 18 0
7 60 49 71 49 3 0 10 -5 16 -11z m-1972 -61 c39 -25 81 -63 95 -84 14 -20 49
-63 79 -95 30 -33 51 -59 47 -59 -24 0 -168 96 -197 132 -50 62 -119 157 -119
164 0 6 0 6 95 -58z m517 47 c54 -6 62 -11 136 -78 l79 -72 -80 -3 -80 -3 -39
38 c-22 21 -58 60 -80 86 -37 44 -39 48 -17 43 13 -3 50 -8 81 -11z m1131 -20
c42 -15 75 -30 72 -35 -3 -4 -45 -11 -95 -15 -93 -7 -95 -9 -84 -53 5 -18 9
-20 18 -9 11 14 96 51 102 44 2 -1 -23 -17 -55 -35 l-59 -32 -90 42 c-50 24
-91 45 -92 48 0 3 28 16 63 30 34 13 71 30 82 37 23 16 30 15 138 -22z m1057
15 c0 -11 -9 -29 -20 -40 -11 -11 -20 -22 -20 -25 0 -16 -85 -137 -104 -147
-19 -10 -20 -10 -7 5 7 9 11 23 8 30 -3 8 6 27 20 43 13 16 21 22 17 14 -4 -8
7 -2 24 14 37 34 41 50 11 41 -20 -7 -20 -6 -4 19 14 21 62 64 73 66 1 0 2 -9
2 -20z m-1858 -23 c22 -17 26 -25 17 -37 -9 -13 -10 -12 -5 3 3 9 1 17 -4 17
-6 0 -10 -10 -10 -22 0 -15 -3 -19 -8 -11 -5 7 -13 9 -21 4 -28 -18 28 -23 57
-5 28 16 30 16 70 -13 l41 -30 -63 -11 c-35 -7 -72 -12 -82 -12 -11 0 -53 28
-94 63 l-75 62 30 6 c66 14 119 10 147 -14z m-1050 -253 c14 -21 35 -59 47
-84 l23 -45 -31 35 c-34 38 -161 281 -161 307 0 9 22 -26 49 -78 26 -53 60
-113 73 -135z m-18 198 c4 -10 16 -29 29 -42 38 -42 108 -161 85 -147 -42 26
-155 207 -129 207 5 0 12 -8 15 -18z m2754 -8 c-15 -16 -129 -66 -135 -60 -9
9 65 62 100 71 49 13 57 10 35 -11z m-621 -1 l43 -6 -63 -46 c-34 -26 -77 -57
-94 -70 l-33 -22 -70 22 c-38 13 -70 25 -70 28 0 4 40 30 88 59 74 44 92 51
122 46 19 -3 54 -8 77 -11z m-526 -49 c51 -25 88 -49 83 -53 -5 -4 -40 -21
-78 -36 l-69 -29 -73 39 c-41 22 -83 47 -95 56 -21 16 -20 17 52 42 41 14 77
26 82 26 4 1 48 -20 98 -45z m952 14 c-12 -11 -39 -27 -60 -34 -32 -11 -40
-11 -55 3 -27 25 -5 41 60 46 31 2 61 4 67 5 5 1 0 -8 -12 -20z m-236 6 l30
-6 -78 -74 c-43 -41 -86 -74 -97 -74 -40 0 -112 13 -112 20 0 4 21 22 48 39
26 16 65 46 87 66 40 35 63 41 122 29z m373 -47 c-11 -19 -37 -52 -58 -74 -32
-34 -45 -41 -91 -46 -30 -4 -56 -5 -58 -3 -2 2 24 30 57 62 57 55 121 91 140
79 5 -3 11 -1 15 5 3 5 8 10 10 10 2 0 -5 -15 -15 -33z m-2526 -20 c48 -39 84
-76 125 -130 12 -15 11 -20 -5 -32 -10 -8 -14 -15 -7 -15 6 0 14 4 18 10 3 5
12 7 19 4 15 -6 151 -164 141 -164 -9 0 -97 47 -126 67 -31 21 -120 148 -116
165 1 7 -3 12 -9 13 -12 0 -109 125 -98 125 3 0 29 -19 58 -43z m321 17 c43
-12 62 -27 135 -104 93 -97 92 -104 -6 -75 -51 15 -85 45 -174 154 -29 37 -38
52 -25 47 11 -5 43 -15 70 -22z m879 -54 c56 -34 93 -62 85 -64 -8 -3 -47 -14
-88 -25 l-74 -21 -88 63 c-49 34 -88 65 -89 68 0 5 116 36 145 38 6 0 54 -26
109 -59z m1096 39 c18 6 35 10 36 8 2 -2 -21 -28 -50 -60 l-53 -56 -68 0 c-76
1 -78 -6 19 78 52 45 60 49 71 34 10 -13 17 -14 45 -4z m-1754 -19 c39 0 50
-6 102 -52 31 -29 75 -67 97 -85 l40 -32 -70 -1 -71 0 -87 84 c-86 82 -102
104 -71 92 9 -3 36 -6 60 -6z m2044 -10 c0 -18 -36 -47 -46 -37 -4 4 34 57 42
57 2 0 4 -9 4 -20z m-1694 -23 c22 -17 64 -48 92 -67 29 -19 52 -38 52 -42 0
-4 -26 -9 -57 -13 -32 -3 -70 -8 -85 -11 -22 -4 -41 8 -114 73 l-87 78 64 6
c35 3 71 6 79 7 8 1 33 -13 56 -31z m837 -27 c32 0 17 -16 -57 -58 l-73 -42
-77 32 c-42 18 -76 35 -76 38 0 3 35 22 77 41 l78 35 55 -23 c30 -12 63 -23
73 -23z m962 -5 c-19 -31 -35 -58 -35 -61 0 -20 -64 -93 -99 -112 -22 -13 -41
-21 -41 -17 0 5 32 46 123 160 32 40 77 85 84 85 2 0 -12 -25 -32 -55z m-799
-41 c63 -16 64 -17 47 -36 -31 -35 -110 -88 -130 -88 -10 0 -47 10 -82 21
l-62 21 78 48 c43 27 79 49 81 49 2 1 32 -6 68 -15z m648 -27 c-11 -12 -48
-55 -83 -94 -56 -65 -67 -73 -99 -73 l-36 0 44 46 c40 40 45 43 48 24 2 -11 8
-18 13 -15 5 4 5 14 -2 27 -16 29 35 89 87 104 48 14 53 10 28 -19z m-2240
-20 c47 -20 81 -47 162 -128 56 -57 101 -105 99 -108 -5 -4 -85 15 -128 31
-15 6 -70 59 -122 118 -92 105 -109 128 -82 117 6 -3 39 -17 71 -30z m1150 -3
c42 -20 75 -38 74 -40 -2 -1 -41 -19 -86 -38 l-83 -36 -80 46 c-43 25 -79 49
-79 52 0 7 132 48 161 51 10 0 51 -15 93 -35z m862 -67 l-76 -83 -62 4 c-35 2
-65 6 -67 8 -3 2 29 35 70 74 60 56 81 69 109 71 19 1 49 4 65 8 17 4 32 6 34
5 2 -2 -31 -41 -73 -87z m-182 74 l30 -6 -69 -63 c-64 -59 -72 -63 -105 -57
-72 12 -90 17 -89 23 0 4 30 30 67 59 69 54 93 60 166 44z m638 -3 c-6 -7 -27
-47 -48 -88 -61 -123 -85 -151 -163 -193 l-71 -38 63 87 c34 48 98 123 142
166 74 72 103 96 77 66z m59 -21 c-10 -9 -11 -8 -5 6 3 10 9 15 12 12 3 -3 0
-11 -7 -18z m-1640 -62 c40 -25 77 -49 82 -54 6 -6 -23 -20 -77 -36 l-86 -26
-89 63 c-50 35 -90 66 -91 69 0 6 110 24 167 28 11 0 54 -19 94 -44z m-1145
-3 c-4 -3 -14 2 -24 12 -16 18 -16 18 6 6 13 -6 21 -14 18 -18z m537 14 c38
-5 48 -11 162 -113 74 -64 72 -71 -20 -72 l-50 -1 -100 101 c-97 98 -99 100
-65 95 19 -4 52 -8 73 -10z m359 -68 c107 -81 107 -83 5 -94 l-52 -5 -90 76
c-49 43 -91 80 -93 85 -2 4 28 8 65 9 l68 1 97 -72z m750 40 c37 -12 68 -25
68 -28 0 -11 -140 -100 -157 -100 -10 0 -54 18 -98 39 l-80 38 85 41 c47 22
92 39 100 37 8 -2 45 -14 82 -27z m-1810 -85 c32 -53 12 -38 -27 19 -19 29
-35 60 -35 68 0 8 10 -1 21 -20 12 -19 30 -50 41 -67z m204 71 c19 -15 19 -15
-1 -6 -11 5 -27 12 -35 15 -13 5 -13 6 1 6 8 1 24 -6 35 -15z m117 -131 c43
-51 77 -95 77 -97 0 -8 -94 46 -119 68 -22 20 -81 99 -81 110 0 5 31 14 41 12
3 0 40 -43 82 -93z m1727 71 c19 -8 25 -12 13 -10 -13 2 -23 0 -23 -6 0 -5 -5
-6 -12 -2 -7 4 -8 3 -4 -5 4 -6 13 -8 19 -5 7 4 4 -2 -6 -12 -11 -12 -20 -15
-25 -9 -4 6 -24 10 -44 11 l-37 0 4 -43 c4 -38 2 -44 -13 -39 -9 2 -41 10 -69
17 -29 7 -53 15 -53 18 0 3 35 29 78 58 83 56 93 58 172 27z m528 -84 c-69
-87 -95 -106 -134 -98 -26 5 99 145 151 168 22 10 43 19 48 19 4 1 -25 -40
-65 -89z m-1022 40 c47 -22 89 -40 94 -40 27 0 2 -20 -69 -54 -51 -26 -85 -37
-97 -32 -29 11 -184 100 -184 106 0 4 96 37 169 59 1 1 41 -17 87 -39z m723
14 c24 -5 23 -6 -15 -45 -60 -62 -117 -105 -121 -92 -3 7 -12 9 -21 6 -14 -4
-14 -3 -2 5 8 6 18 8 22 6 4 -3 8 -1 8 5 0 18 -25 19 -45 1 -16 -14 -27 -15
-54 -8 l-34 9 39 32 c21 18 54 46 73 63 30 27 40 31 80 27 25 -2 57 -6 70 -9z
m-2169 -19 c13 -14 19 -25 13 -25 -6 0 -18 11 -27 25 -9 14 -15 25 -13 25 2 0
14 -11 27 -25z m303 6 c23 -11 53 -22 66 -26 23 -7 221 -191 221 -206 0 -8
-133 26 -155 39 -22 13 -192 212 -181 212 3 0 25 -9 49 -19z m2016 -39 c-19
-22 -47 -55 -62 -76 -26 -34 -31 -36 -82 -36 -30 0 -55 2 -55 5 0 3 32 36 71
73 59 55 79 68 113 72 22 3 43 4 45 3 2 -1 -11 -20 -30 -41z m427 21 c-4 -9
-38 -67 -77 -129 -50 -79 -82 -120 -110 -139 -23 -14 -43 -25 -45 -22 -2 2 20
35 49 73 28 38 67 92 86 119 33 48 91 115 99 115 2 0 1 -7 -2 -17z m-1593 -47
c18 -13 63 -40 101 -61 l69 -39 -59 -22 c-93 -36 -82 -39 -224 65 l-75 55 60
12 c87 17 93 16 128 -10z m-550 -16 c52 -10 67 -20 140 -86 45 -41 85 -74 89
-74 5 0 8 -4 8 -10 0 -6 -28 -10 -65 -10 -72 0 -72 0 -212 134 -56 53 -64 66
-35 60 9 -2 43 -8 75 -14z m-445 -67 c26 -37 66 -91 90 -120 23 -29 40 -53 38
-53 -9 0 -110 61 -142 86 -33 25 -80 94 -64 94 6 0 10 6 10 14 0 9 -7 12 -20
9 -14 -4 -20 0 -20 11 0 10 4 15 8 12 4 -2 14 -1 22 5 24 15 28 12 78 -58z
m829 -4 c54 -39 99 -74 101 -79 4 -10 -138 -28 -156 -20 -21 10 -181 144 -182
152 0 4 24 9 53 11 28 2 60 4 69 5 9 1 61 -30 115 -69z m672 62 c7 -5 10 -14
6 -20 -4 -8 1 -10 17 -6 13 3 34 2 48 -3 22 -8 19 -12 -53 -60 l-76 -52 -52
20 c-101 40 -101 37 -13 86 82 45 99 50 123 35z m-1597 -197 c-2 -19 -7 -34
-11 -34 -7 0 -79 115 -110 178 -20 40 -18 38 52 -34 66 -69 72 -80 69 -110z
m2442 69 c-71 -98 -95 -124 -105 -117 -5 3 -6 -2 -3 -10 5 -13 -3 -16 -50 -16
-53 0 -56 1 -46 19 5 11 13 21 17 23 5 1 32 33 61 70 44 53 62 68 95 77 23 6
49 15 57 21 34 22 28 6 -26 -67z m-664 63 c0 -2 -12 -11 -27 -20 l-28 -17 24
20 c23 21 31 25 31 17z m37 -12 c-3 -3 -12 -4 -19 -1 -8 3 -5 6 6 6 11 1 17
-2 13 -5z m48 -14 c3 -6 -1 -7 -9 -4 -18 7 -21 14 -7 14 6 0 13 -4 16 -10z
m-1625 -35 c0 -8 5 -15 11 -15 5 0 7 5 4 10 -3 6 -1 10 4 10 13 0 14 -10 3
-28 -6 -9 -13 -7 -29 10 -34 38 -39 52 -14 39 11 -7 21 -18 21 -26z m1679 32
c-2 -1 -15 -11 -29 -22 l-25 -20 19 23 c11 12 24 22 29 22 6 0 8 -1 6 -3z
m-193 -19 c4 -6 3 -8 -3 -5 -6 4 -19 -3 -29 -14 -10 -11 -14 -20 -9 -19 6 2
19 2 30 1 17 -1 18 -3 5 -11 -14 -9 -7 -14 13 -11 5 1 6 -3 3 -8 -4 -5 -1 -11
6 -14 27 -8 -48 6 -86 17 l-40 12 49 31 c28 17 51 32 52 32 1 1 5 -4 9 -11z
m347 5 l39 -6 -68 -68 c-73 -73 -82 -77 -153 -56 l-44 14 27 19 c15 10 50 38
77 62 52 44 59 46 122 35z m-665 -36 l71 -32 -69 -38 c-37 -20 -72 -37 -78
-37 -18 0 -153 82 -147 89 7 7 125 49 141 50 6 1 43 -14 82 -32z m859 13 c-7
-10 -35 -46 -63 -79 l-49 -61 -57 3 c-32 1 -58 2 -58 3 0 0 34 35 76 77 72 73
78 77 121 77 42 0 43 -1 30 -20z m-1845 -113 c53 -56 95 -103 94 -104 -2 -2
-35 7 -75 19 -74 22 -102 42 -152 111 -24 33 -26 42 -17 63 18 38 43 23 150
-89z m-365 -22 c-2 -31 1 -39 13 -37 8 2 12 0 7 -4 -4 -4 3 -19 15 -33 17 -18
11 -15 -19 9 -65 50 -77 73 -62 117 l12 36 18 -24 c12 -16 18 -38 16 -64z
m533 51 c14 -3 61 -40 105 -81 44 -41 83 -75 88 -75 4 0 7 -5 7 -11 0 -8 -22
-10 -77 -5 l-78 7 -92 92 c-51 50 -93 95 -93 98 0 4 26 1 58 -7 31 -7 68 -15
82 -18z m590 -13 c44 -27 79 -50 80 -53 0 -6 -151 -55 -167 -54 -12 2 -152
106 -153 114 0 3 35 12 78 21 42 9 78 17 80 17 2 1 39 -19 82 -45z m-1200 -93
c20 -25 45 -61 55 -80 17 -33 62 -96 121 -169 46 -57 -4 -20 -61 44 -68 78
-130 167 -171 247 -40 79 -45 113 -8 48 15 -25 43 -65 64 -90z m1645 87 l69
-23 -77 -47 -77 -46 -72 30 c-40 17 -74 32 -76 34 -4 3 140 73 154 74 5 1 41
-9 79 -22z m-702 -48 c34 -28 67 -54 74 -56 27 -10 11 -21 -48 -32 -68 -14
-64 -16 -182 88 l-58 51 76 0 77 0 61 -51z m1616 -39 c-26 -64 -40 -85 -67
-101 -19 -11 -36 -18 -38 -17 -2 2 23 41 56 86 32 46 62 92 65 103 4 11 9 18
12 15 3 -2 -10 -41 -28 -86z m-2277 5 c38 -13 60 -32 119 -103 40 -48 79 -91
86 -95 24 -15 14 -26 -14 -17 -16 5 -46 14 -69 19 -32 9 -51 24 -95 78 -49 62
-81 106 -103 141 -6 11 -4 11 10 4 11 -6 40 -18 66 -27z m1600 24 l52 -12 -29
-24 c-17 -13 -53 -42 -82 -64 l-52 -41 -66 23 c-36 13 -65 26 -64 29 1 12 146
98 166 99 12 1 46 -4 75 -10z m546 -80 c-34 -50 -72 -98 -83 -105 -21 -13
-115 -36 -115 -27 0 2 34 43 76 91 53 60 90 94 122 109 26 12 51 22 55 22 4 1
-21 -40 -55 -90z m-330 51 c13 0 22 -4 20 -9 -1 -5 -36 -43 -76 -86 l-72 -77
-53 12 c-86 20 -86 20 5 99 76 65 86 71 118 66 19 -2 46 -5 58 -5z m-674 -34
l69 -33 -69 -35 c-106 -54 -104 -54 -178 -7 -36 23 -66 44 -66 48 0 7 138 59
161 60 8 1 46 -14 83 -33z m865 7 c-7 -10 -42 -51 -77 -90 l-64 -73 -54 0
c-30 0 -54 3 -54 6 0 3 34 44 76 90 l76 84 55 0 c51 0 54 -1 42 -17z m-1677
-82 c20 -7 151 -132 145 -138 -3 -2 -39 -1 -81 3 l-75 7 -50 57 c-27 31 -61
71 -76 88 l-26 31 73 -21 c40 -11 80 -23 90 -27z m508 14 c7 -8 16 -15 21 -15
11 0 97 -59 105 -72 4 -6 3 -8 -3 -5 -5 3 -27 0 -49 -8 -46 -17 -100 -19 -117
-5 -7 6 -34 26 -60 46 -27 20 -45 39 -42 42 6 6 88 27 121 31 6 0 17 -6 24
-14z m515 -34 l78 -28 -59 -40 c-117 -80 -113 -79 -199 -36 -41 21 -75 41 -75
44 0 3 28 18 63 33 53 23 110 51 113 55 0 1 35 -12 79 -28z m-684 -45 l68 -54
-31 -6 c-17 -3 -55 -6 -85 -6 -51 0 -58 3 -114 52 -32 29 -59 55 -59 58 0 3
34 6 76 7 l76 2 69 -53z m-670 -29 c31 -14 70 -42 88 -63 19 -22 64 -72 102
-111 37 -40 61 -73 54 -73 -28 0 -150 51 -172 72 -13 12 -23 30 -23 41 0 11
-3 18 -6 14 -8 -7 -113 114 -114 131 0 6 -4 12 -10 12 -5 0 -10 5 -10 10 0 7
6 7 18 1 9 -5 42 -20 73 -34z m2178 -4 c-40 -68 -70 -103 -99 -118 -16 -8 -32
-15 -35 -15 -3 0 7 24 21 53 26 52 27 52 3 32 l-23 -20 15 25 c14 21 107 77
132 79 5 1 -1 -16 -14 -36z m-603 10 c35 -9 64 -20 64 -23 -1 -3 -39 -37 -86
-77 l-85 -72 -38 14 c-21 7 -55 22 -76 32 l-37 20 88 60 c49 33 93 61 97 62 5
0 38 -7 73 -16z m-462 -67 l78 -45 -61 -30 c-33 -17 -66 -31 -74 -31 -7 0 -48
23 -92 52 l-79 52 60 22 c32 13 66 23 75 23 8 1 51 -19 93 -43z m695 17 c6 -5
-83 -96 -132 -135 -36 -29 -39 -30 -87 -18 -28 7 -50 15 -49 18 0 4 38 39 82
78 l82 72 50 -6 c28 -2 52 -7 54 -9z m143 -50 c-90 -104 -104 -114 -166 -120
-31 -3 -56 -2 -56 3 0 5 36 45 80 89 75 75 83 80 132 85 29 3 55 5 57 3 2 -1
-19 -28 -47 -60z m-1716 21 c44 -6 55 -14 146 -108 53 -55 96 -101 95 -101 -1
-1 -28 1 -59 3 -57 4 -57 4 -143 91 -97 99 -128 138 -103 129 8 -4 37 -10 64
-14z m632 -46 c32 -24 69 -49 85 -57 15 -8 27 -17 27 -21 0 -12 -148 -52 -167
-45 -44 14 -67 45 -66 88 0 33 -1 35 -4 10 -2 -18 -7 -33 -11 -33 -4 0 -27 18
-52 39 l-45 39 55 10 c102 18 117 16 178 -30z m-225 -60 c109 -93 109 -89 -12
-101 l-64 -7 -96 95 -96 95 85 0 86 0 97 -82z m1387 57 c0 -19 -9 -29 -40 -44
-22 -10 -40 -16 -40 -13 0 6 69 78 78 81 1 1 2 -10 2 -24z m-698 -47 c43 -18
78 -34 78 -37 0 -4 -32 -25 -72 -48 l-72 -42 -78 42 -77 42 27 14 c15 8 45 25
67 37 22 12 42 22 44 23 3 0 40 -13 83 -31z"/>
<path d="M4592 2699 c2 -8 -3 -13 -12 -11 -11 3 -10 -2 4 -17 16 -17 22 -19
34 -8 13 10 15 9 9 -6 -4 -11 -3 -16 3 -12 6 4 8 18 6 32 -6 28 -16 44 -16 23
0 -10 -3 -10 -16 0 -12 11 -15 11 -12 -1z m27 -26 c-6 -7 -15 -10 -20 -7 -13
8 -3 21 15 21 12 0 13 -4 5 -14z"/>
<path d="M5382 2640 c0 -14 2 -19 5 -12 2 6 2 18 0 25 -3 6 -5 1 -5 -13z"/>
<path d="M5275 2630 c-3 -5 -1 -10 4 -10 6 0 11 5 11 10 0 6 -2 10 -4 10 -3 0
-8 -4 -11 -10z"/>
<path d="M5215 2510 c-3 -5 -2 -10 4 -10 5 0 13 5 16 10 3 6 2 10 -4 10 -5 0
-13 -4 -16 -10z"/>
<path d="M5460 2260 c0 -5 5 -10 11 -10 5 0 7 5 4 10 -3 6 -8 10 -11 10 -2 0
-4 -4 -4 -10z"/>
<path d="M3671 2131 c-12 -7 -11 -12 1 -30 l15 -21 22 24 c19 21 20 24 6 30
-21 8 -27 7 -44 -3z m16 -16 c0 -8 -4 -12 -9 -9 -5 3 -6 10 -3 15 9 13 12 11
12 -6z"/>
<path d="M3720 2078 c-12 -22 -12 -22 6 -6 10 10 15 20 12 24 -4 3 -12 -5 -18
-18z"/>
<path d="M3445 1990 c-5 -9 -4 -11 3 -6 7 4 12 3 12 -3 0 -6 10 -16 23 -22 19
-10 20 -9 7 2 -8 8 -19 20 -26 28 -9 11 -12 12 -19 1z"/>
<path d="M3626 1987 c3 -10 9 -15 12 -12 3 3 0 11 -7 18 -10 9 -11 8 -5 -6z"/>
<path d="M5673 1705 c0 -8 4 -12 9 -9 5 3 6 10 3 15 -9 13 -12 11 -12 -6z"/>
<path d="M5510 1775 c-28 -29 -31 -37 -20 -50 9 -11 16 -13 26 -4 13 10 37 79
31 86 -2 1 -18 -13 -37 -32z m-6 -41 c3 -8 2 -12 -4 -9 -6 3 -10 10 -10 16 0
14 7 11 14 -7z"/>
<path d="M5370 1800 c0 -6 7 -10 15 -10 8 0 15 2 15 4 0 2 -7 6 -15 10 -8 3
-15 1 -15 -4z"/>
<path d="M5221 1526 c-12 -14 -11 -16 7 -13 12 2 25 7 29 12 5 4 3 5 -4 2 -6
-4 -13 -2 -15 4 -2 7 -9 5 -17 -5z"/>
<path d="M3600 1573 c0 -5 5 -15 10 -23 8 -12 10 -11 10 8 0 12 -4 22 -10 22
-5 0 -10 -3 -10 -7z"/>
<path d="M5561 1581 c-1 -20 1 -21 14 -11 16 14 21 25 6 16 -5 -4 -12 0 -14 6
-3 7 -6 2 -6 -11z"/>
<path d="M4969 1243 c-13 -16 -12 -17 4 -4 9 7 17 15 17 17 0 8 -8 3 -21 -13z"/>
<path d="M4629 1093 c-13 -16 -12 -17 4 -4 16 13 21 21 13 21 -2 0 -10 -8 -17
-17z"/>
<path d="M4885 1049 c-4 -6 -4 -13 -1 -16 3 -3 0 -13 -6 -22 -7 -9 -2 -7 11 4
13 11 25 19 27 18 2 -2 4 -1 4 2 0 3 0 10 0 17 0 6 -7 3 -16 -8 -13 -16 -15
-16 -10 -1 6 19 1 23 -9 6z"/>
<path d="M3595 953 c9 -21 23 -45 31 -53 9 -9 5 7 -10 38 -30 60 -44 70 -21
15z"/>
<path d="M4775 3908 c-4 -13 -19 -36 -34 -52 l-26 -29 31 21 c18 12 35 34 38
48 9 33 0 44 -9 12z"/>
<path d="M5790 3877 c0 -8 10 -22 21 -33 l22 -19 -17 33 c-18 34 -26 40 -26
19z"/>
<path d="M6641 3864 c0 -11 3 -14 6 -6 3 7 2 16 -1 19 -3 4 -6 -2 -5 -13z"/>
<path d="M5682 3820 c0 -19 2 -27 5 -17 2 9 2 25 0 35 -3 9 -5 1 -5 -18z"/>
<path d="M2996 3755 c-28 -70 -32 -95 -16 -95 6 0 10 4 10 9 0 5 8 12 18 15 9
3 25 25 34 47 17 40 17 42 -1 65 l-19 24 -26 -65z"/>
<path d="M5825 3754 c-6 -54 -5 -58 22 -84 23 -23 41 -29 98 -35 l70 -7 -19
21 c-10 11 -43 39 -71 61 -29 23 -58 54 -65 70 -7 17 -16 30 -20 30 -4 0 -11
-25 -15 -56z"/>
<path d="M5677 3760 c3 -11 7 -20 9 -20 2 0 4 9 4 20 0 11 -4 20 -9 20 -5 0
-7 -9 -4 -20z"/>
<path d="M5315 3719 c17 -19 30 -35 30 -36 0 -1 20 -6 43 -11 37 -9 41 -8 31
4 -6 8 -19 12 -28 9 -10 -3 -26 2 -37 11 -18 14 -18 15 4 4 13 -7 26 -9 29 -6
3 2 -19 17 -49 31 l-53 27 30 -33z"/>
<path d="M4665 3665 c15 -85 19 -103 28 -125 13 -35 27 -88 33 -125 3 -22 8
-43 10 -47 2 -3 -2 -9 -8 -11 -8 -3 -5 -6 6 -6 31 -2 15 112 -34 239 -22 58
-38 92 -35 75z"/>
<path d="M5723 3644 c-17 -7 -34 -18 -37 -23 -3 -5 12 -1 34 10 22 11 40 22
40 24 0 6 3 7 -37 -11z"/>
<path d="M5858 3593 c7 -3 16 -2 19 1 4 3 -2 6 -13 5 -11 0 -14 -3 -6 -6z"/>
<path d="M3761 3568 c-1 -21 4 -28 17 -28 11 0 13 3 6 8 -7 4 -14 16 -17 27
-4 15 -5 14 -6 -7z"/>
<path d="M4740 3570 c6 -11 13 -20 16 -20 2 0 0 9 -6 20 -6 11 -13 20 -16 20
-2 0 0 -9 6 -20z"/>
<path d="M5685 3549 c-4 -6 -5 -12 -2 -15 2 -3 7 2 10 11 7 17 1 20 -8 4z"/>
<path d="M3808 3533 c7 -3 16 -2 19 1 4 3 -2 6 -13 5 -11 0 -14 -3 -6 -6z"/>
<path d="M4770 3520 c6 -11 13 -20 16 -20 2 0 0 9 -6 20 -6 11 -13 20 -16 20
-2 0 0 -9 6 -20z"/>
<path d="M4310 3490 c0 -5 5 -10 11 -10 5 0 7 5 4 10 -3 6 -8 10 -11 10 -2 0
-4 -4 -4 -10z"/>
<path d="M4410 3395 c0 -9 6 -12 15 -9 8 4 15 7 15 9 0 2 -7 5 -15 9 -9 3 -15
0 -15 -9z"/>
<path d="M3678 3193 c6 -2 18 -2 25 0 6 3 1 5 -13 5 -14 0 -19 -2 -12 -5z"/>
<path d="M3733 3183 c9 -2 23 -2 30 0 6 3 -1 5 -18 5 -16 0 -22 -2 -12 -5z"/>
<path d="M3891 3159 c13 -8 88 -14 78 -5 -2 2 -24 6 -48 9 -29 4 -40 2 -30 -4z"/>
<path d="M3988 3143 c6 -2 18 -2 25 0 6 3 1 5 -13 5 -14 0 -19 -2 -12 -5z"/>
<path d="M4327 3113 c18 -2 50 -2 70 0 21 2 7 4 -32 4 -38 0 -55 -2 -38 -4z"/>
<path d="M4738 3113 c6 -2 18 -2 25 0 6 3 1 5 -13 5 -14 0 -19 -2 -12 -5z"/>
<path d="M3160 1060 c0 -8 5 -42 10 -75 6 -33 12 -103 14 -155 4 -106 28 -185
74 -242 204 -256 672 -422 1247 -443 88 -3 214 -2 280 3 119 8 118 9 -90 10
-115 1 -219 3 -231 6 -11 2 -56 7 -100 11 -95 7 -117 10 -260 35 -61 11 -129
22 -150 25 -215 32 -497 167 -573 274 -27 37 -33 77 -15 92 11 9 12 15 3 25
-9 11 -8 14 2 14 9 0 10 3 4 8 -6 4 -10 14 -10 22 1 8 -1 19 -4 25 -3 5 -4 27
-2 48 2 34 -3 44 -47 90 -59 63 -119 152 -137 204 -8 21 -14 31 -15 23z"/>
<path d="M6041 1044 c0 -11 3 -14 6 -6 3 7 2 16 -1 19 -3 4 -6 -2 -5 -13z"/>
<path d="M6032 990 c0 -19 2 -27 5 -17 2 9 2 25 0 35 -3 9 -5 1 -5 -18z"/>
<path d="M6021 924 c0 -11 3 -14 6 -6 3 7 2 16 -1 19 -3 4 -6 -2 -5 -13z"/>
<path d="M6001 783 c-7 -37 -21 -88 -32 -114 -21 -49 -72 -95 -91 -83 -6 4 -8
3 -5 -3 4 -6 0 -16 -8 -23 -12 -10 -13 -8 -10 9 2 12 7 26 10 31 3 6 0 10 -7
10 -9 0 -9 3 2 10 13 9 13 10 0 10 -13 0 -13 1 0 10 13 9 13 10 0 10 -13 0
-13 1 0 10 13 9 13 10 0 10 -9 0 -11 3 -5 8 6 4 11 23 13 42 1 19 4 47 6 63 5
33 3 33 -57 2 -26 -14 -47 -22 -47 -18 0 5 -4 3 -8 -3 -10 -16 -80 -50 -186
-91 -106 -41 -148 -61 -158 -77 -12 -17 -9 -28 4 -20 7 5 8 3 2 -7 -12 -19
-12 -199 0 -206 5 -4 6 0 2 8 -5 10 -4 10 6 -1 7 -8 28 -15 46 -14 17 0 32 -3
32 -8 0 -4 -7 -8 -16 -8 -8 0 -13 -4 -10 -8 9 -14 -134 -81 -229 -106 -49 -14
-83 -25 -74 -25 66 -3 377 105 509 177 211 114 318 244 328 400 2 39 3 72 0
72 -2 0 -10 -30 -17 -67z"/>
<path d="M3965 511 c0 -25 3 -50 6 -56 4 -5 5 -18 4 -28 -2 -9 1 -15 5 -12 5
3 7 14 5 25 -2 11 0 22 4 25 5 2 7 -10 4 -28 -4 -35 -4 -41 -2 -92 1 -23 6
-35 16 -35 8 0 12 -4 9 -8 -3 -5 0 -9 7 -9 7 0 26 -3 42 -7 69 -14 118 -21
235 -31 36 -4 75 -8 87 -10 13 -2 26 1 29 7 4 6 10 5 15 -3 7 -11 9 -11 9 -1
0 7 4 11 9 7 5 -3 12 -1 16 5 4 6 12 7 18 4 8 -5 8 -3 0 7 -19 20 -16 33 5 18
15 -13 16 -12 4 3 -9 11 -10 18 -2 23 8 5 8 11 1 19 -7 9 -7 16 2 25 9 10 9
12 -2 9 -7 -2 -16 3 -19 11 -2 8 0 11 5 8 5 -3 10 0 10 8 0 8 -4 12 -9 9 -4
-3 -8 2 -8 11 0 9 5 13 11 10 6 -4 5 1 -2 13 -14 23 -5 57 13 46 8 -4 10 -3 5
2 -5 5 -13 10 -18 10 -5 1 -10 2 -11 4 -7 5 -59 11 -213 26 -54 5 -112 12
-160 20 -16 3 -53 7 -81 9 l-50 3 1 -47z m20 18 c-3 -12 -7 -24 -10 -27 -3 -3
-3 5 -1 19 6 30 5 29 10 29 3 0 3 -10 1 -21z m476 -52 c-6 -6 -7 -16 -1 -28 7
-12 5 -23 -8 -40 -15 -17 -19 -18 -19 -6 0 9 4 14 8 11 9 -5 17 17 11 33 -2 7
-9 10 -15 6 -6 -4 -7 -1 -1 8 5 8 9 17 10 22 1 4 2 10 3 13 0 3 6 2 12 -2 7
-4 8 -9 0 -17z m4 -87 c-4 -6 -1 -17 5 -25 7 -8 9 -15 5 -15 -4 0 -2 -6 4 -14
9 -10 8 -16 -4 -26 -9 -7 -14 -19 -11 -26 3 -7 1 -16 -3 -18 -5 -3 -8 7 -7 22
0 18 -4 26 -14 24 -10 -2 -11 0 -2 11 9 10 9 17 -1 26 -9 10 -9 12 3 9 8 -2
15 4 16 12 2 25 4 30 10 30 3 0 2 -5 -1 -10z"/>
<path d="M4459 358 c-6 -21 -5 -39 2 -44 5 -3 8 6 7 20 -2 22 -6 33 -9 24z"/>
<path d="M4480 461 c0 -6 4 -13 10 -16 6 -3 7 1 4 9 -7 18 -14 21 -14 7z"/>
<path d="M3973 345 c0 -8 4 -12 9 -9 5 3 6 10 3 15 -9 13 -12 11 -12 -6z"/>
<path d="M5128 193 c6 -2 18 -2 25 0 6 3 1 5 -13 5 -14 0 -19 -2 -12 -5z"/>
<path d="M5030 180 c-34 -7 -34 -7 -5 -8 17 0 44 4 60 8 27 7 27 8 5 8 -14 -1
-41 -4 -60 -8z"/>
<path d="M4928 163 c12 -2 30 -2 40 0 9 3 -1 5 -23 4 -22 0 -30 -2 -17 -4z"/>
</g>
</svg>
