
<svg xmlns="http://www.w3.org/2000/svg" xmlns:xlink="http://www.w3.org/1999/xlink" preserveAspectRatio="xMidYMid meet" version="1.0" viewBox="0.0 0.0 350.0 536.6" zoomAndPan="magnify" style="fill: #fff;" original_string_length="986"><g id="__id2302_sci9qn65do"><path d="M350,175.032C350,78.355,271.651,0,175.017,0C78.372,0,0,78.355,0,175.032c0,1.708,0.228,3.416,0.25,5.13 c0,0.043-0.119,0.043-0.119,0.043c0,3.898,0.282,7.971,0.737,12.194c0.086,0.786,0.206,1.508,0.25,2.288 c0.455,3.584,1.019,7.293,1.724,11.067c0.456,2.667,0.933,5.297,1.551,7.872C31.113,332.248,174.973,536.62,174.973,536.62 s129.167-187.108,165.539-305.1c2.873-8.54,5.129-17.346,6.701-26.396c1.703-8.984,2.776-17.355,2.776-24.92 c0-0.569-0.206-1.068-0.206-1.621C349.805,177.386,350,176.241,350,175.032z M175.017,266.363 c-51.207,0-92.687-41.474-92.687-92.632c0-51.169,41.458-92.648,92.687-92.648c51.131,0,92.643,41.469,92.643,92.648 C267.659,224.878,226.148,266.363,175.017,266.363z" style="fill: #fff;"/></g></svg>